<svg xmlns="http://www.w3.org/2000/svg" xmlns:xlink="http://www.w3.org/1999/xlink" width="1200" zoomAndPan="magnify" viewBox="0 0 900 899.99999" height="1200" preserveAspectRatio="xMidYMid meet" version="1.0"><defs><clipPath id="dc70654f94"><path d="M 161.648438 109.78125 L 230.683594 109.78125 L 230.683594 712.863281 L 161.648438 712.863281 Z M 161.648438 109.78125 " clip-rule="nonzero"/></clipPath><clipPath id="78f22948f2"><path d="M 0.648438 0.78125 L 69.683594 0.78125 L 69.683594 603.863281 L 0.648438 603.863281 Z M 0.648438 0.78125 " clip-rule="nonzero"/></clipPath><clipPath id="7763beb134"><rect x="0" width="70" y="0" height="604"/></clipPath><clipPath id="27ba8d3708"><path d="M 669.339844 109.78125 L 738.375 109.78125 L 738.375 712.863281 L 669.339844 712.863281 Z M 669.339844 109.78125 " clip-rule="nonzero"/></clipPath><clipPath id="fb73486842"><path d="M 0.339844 0.78125 L 69.375 0.78125 L 69.375 603.863281 L 0.339844 603.863281 Z M 0.339844 0.78125 " clip-rule="nonzero"/></clipPath><clipPath id="454f923dd0"><rect x="0" width="70" y="0" height="604"/></clipPath><clipPath id="fc5b9d5da4"><path d="M 542.011719 356 L 613.785156 356 L 613.785156 712.863281 L 542.011719 712.863281 Z M 542.011719 356 " clip-rule="nonzero"/></clipPath><clipPath id="78c7dd0b52"><path d="M 0.0117188 0 L 71.785156 0 L 71.785156 356.863281 L 0.0117188 356.863281 Z M 0.0117188 0 " clip-rule="nonzero"/></clipPath><clipPath id="648f14131f"><rect x="0" width="72" y="0" height="357"/></clipPath><clipPath id="386e014657"><path d="M 414.828125 438.214844 L 486.605469 438.214844 L 486.605469 712.863281 L 414.828125 712.863281 Z M 414.828125 438.214844 " clip-rule="nonzero"/></clipPath><clipPath id="f8c36c341f"><path d="M 0.828125 0.214844 L 72.605469 0.214844 L 72.605469 274.863281 L 0.828125 274.863281 Z M 0.828125 0.214844 " clip-rule="nonzero"/></clipPath><clipPath id="004948edfd"><rect x="0" width="73" y="0" height="275"/></clipPath><clipPath id="587fcb6410"><path d="M 282.730469 520.988281 L 354.507812 520.988281 L 354.507812 712.863281 L 282.730469 712.863281 Z M 282.730469 520.988281 " clip-rule="nonzero"/></clipPath><clipPath id="5c3cbf73e1"><path d="M 0.730469 0.988281 L 72.507812 0.988281 L 72.507812 192.863281 L 0.730469 192.863281 Z M 0.730469 0.988281 " clip-rule="nonzero"/></clipPath><clipPath id="986ec65e6e"><rect x="0" width="73" y="0" height="193"/></clipPath><clipPath id="3f8c65df08"><path d="M 162.625 642.601562 L 354.503906 642.601562 L 354.503906 712.867188 L 162.625 712.867188 Z M 162.625 642.601562 " clip-rule="nonzero"/></clipPath><clipPath id="090970683f"><path d="M 0.625 0.601562 L 192.503906 0.601562 L 192.503906 70.867188 L 0.625 70.867188 Z M 0.625 0.601562 " clip-rule="nonzero"/></clipPath><clipPath id="186ad3d20a"><rect x="0" width="193" y="0" height="71"/></clipPath><clipPath id="36840f3a0d"><path d="M 542.003906 642.601562 L 738.367188 642.601562 L 738.367188 712.867188 L 542.003906 712.867188 Z M 542.003906 642.601562 " clip-rule="nonzero"/></clipPath><clipPath id="97b54e0d40"><path d="M 0.00390625 0.601562 L 196.367188 0.601562 L 196.367188 70.867188 L 0.00390625 70.867188 Z M 0.00390625 0.601562 " clip-rule="nonzero"/></clipPath><clipPath id="48766b99dd"><rect x="0" width="197" y="0" height="71"/></clipPath><clipPath id="195f19eb00"><path d="M 161.644531 107.996094 L 738.324219 107.996094 L 738.324219 178.257812 L 161.644531 178.257812 Z M 161.644531 107.996094 " clip-rule="nonzero"/></clipPath><clipPath id="2db7f6a9ce"><path d="M 0.644531 0.996094 L 577.324219 0.996094 L 577.324219 71.257812 L 0.644531 71.257812 Z M 0.644531 0.996094 " clip-rule="nonzero"/></clipPath><clipPath id="b8723c6962"><rect x="0" width="578" y="0" height="72"/></clipPath><clipPath id="47d2b5ac0d"><path d="M 542 674.734375 L 664.488281 674.734375 L 664.488281 792.003906 L 542 792.003906 Z M 542 674.734375 " clip-rule="nonzero"/></clipPath><clipPath id="98ec12fbb0"><path d="M 542.003906 792.003906 L 542.003906 674.734375 L 664.488281 674.734375 Z M 542.003906 792.003906 " clip-rule="nonzero"/></clipPath><clipPath id="95cd1851b3"><path d="M 0 0.734375 L 122.488281 0.734375 L 122.488281 118.003906 L 0 118.003906 Z M 0 0.734375 " clip-rule="nonzero"/></clipPath><clipPath id="30297be381"><path d="M 0.00390625 118.003906 L 0.00390625 0.734375 L 122.488281 0.734375 Z M 0.00390625 118.003906 " clip-rule="nonzero"/></clipPath><clipPath id="debc45d546"><rect x="0" width="123" y="0" height="119"/></clipPath><clipPath id="6b94fc2e88"><path d="M 542.011719 233.011719 L 613.785156 233.011719 L 613.785156 305.328125 L 542.011719 305.328125 Z M 542.011719 233.011719 " clip-rule="nonzero"/></clipPath><clipPath id="d923c9e2b9"><path d="M 0.0117188 0.0117188 L 71.785156 0.0117188 L 71.785156 72.328125 L 0.0117188 72.328125 Z M 0.0117188 0.0117188 " clip-rule="nonzero"/></clipPath><clipPath id="7fc3ce719c"><rect x="0" width="72" y="0" height="73"/></clipPath></defs><rect x="-90" width="1080" fill="#ffffff" y="-89.999999" height="1079.999988" fill-opacity="1"/><rect x="-90" width="1080" fill="#ffffff" y="-89.999999" height="1079.999988" fill-opacity="1"/><g clip-path="url(#dc70654f94)"><g transform="matrix(1, 0, 0, 1, 161, 109)"><g clip-path="url(#7763beb134)"><g clip-path="url(#78f22948f2)"><path fill="#2272ff" d="M 0.648438 0.78125 L 69.683594 0.78125 L 69.683594 603.769531 L 0.648438 603.769531 Z M 0.648438 0.78125 " fill-opacity="1" fill-rule="nonzero"/></g></g></g></g><g clip-path="url(#27ba8d3708)"><g transform="matrix(1, 0, 0, 1, 669, 109)"><g clip-path="url(#454f923dd0)"><g clip-path="url(#fb73486842)"><path fill="#2272ff" d="M 0.339844 0.78125 L 69.375 0.78125 L 69.375 603.769531 L 0.339844 603.769531 Z M 0.339844 0.78125 " fill-opacity="1" fill-rule="nonzero"/></g></g></g></g><g clip-path="url(#fc5b9d5da4)"><g transform="matrix(1, 0, 0, 1, 542, 356)"><g clip-path="url(#648f14131f)"><g clip-path="url(#78c7dd0b52)"><path fill="#2272ff" d="M 0.0117188 0 L 71.785156 0 L 71.785156 356.917969 L 0.0117188 356.917969 Z M 0.0117188 0 " fill-opacity="1" fill-rule="nonzero"/></g></g></g></g><g clip-path="url(#386e014657)"><g transform="matrix(1, 0, 0, 1, 414, 438)"><g clip-path="url(#004948edfd)"><g clip-path="url(#f8c36c341f)"><path fill="#2272ff" d="M 0.828125 0.214844 L 72.605469 0.214844 L 72.605469 274.988281 L 0.828125 274.988281 Z M 0.828125 0.214844 " fill-opacity="1" fill-rule="nonzero"/></g></g></g></g><g clip-path="url(#587fcb6410)"><g transform="matrix(1, 0, 0, 1, 282, 520)"><g clip-path="url(#986ec65e6e)"><g clip-path="url(#5c3cbf73e1)"><path fill="#2272ff" d="M 0.730469 0.988281 L 72.507812 0.988281 L 72.507812 192.765625 L 0.730469 192.765625 Z M 0.730469 0.988281 " fill-opacity="1" fill-rule="nonzero"/></g></g></g></g><g clip-path="url(#3f8c65df08)"><g transform="matrix(1, 0, 0, 1, 162, 642)"><g clip-path="url(#186ad3d20a)"><g clip-path="url(#090970683f)"><path fill="#2272ff" d="M 192.503906 0.601562 L 192.503906 70.867188 L 0.652344 70.867188 L 0.652344 0.601562 Z M 192.503906 0.601562 " fill-opacity="1" fill-rule="nonzero"/></g></g></g></g><g clip-path="url(#36840f3a0d)"><g transform="matrix(1, 0, 0, 1, 542, 642)"><g clip-path="url(#48766b99dd)"><g clip-path="url(#97b54e0d40)"><path fill="#2272ff" d="M 196.367188 0.601562 L 196.367188 70.867188 L 0.125 70.867188 L 0.125 0.601562 Z M 196.367188 0.601562 " fill-opacity="1" fill-rule="nonzero"/></g></g></g></g><g clip-path="url(#195f19eb00)"><g transform="matrix(1, 0, 0, 1, 161, 107)"><g clip-path="url(#b8723c6962)"><g clip-path="url(#2db7f6a9ce)"><path fill="#2272ff" d="M 577.324219 0.996094 L 577.324219 71.257812 L 0.675781 71.257812 L 0.675781 0.996094 Z M 577.324219 0.996094 " fill-opacity="1" fill-rule="nonzero"/></g></g></g></g><g clip-path="url(#47d2b5ac0d)"><g clip-path="url(#98ec12fbb0)"><g transform="matrix(1, 0, 0, 1, 542, 674)"><g clip-path="url(#debc45d546)"><g clip-path="url(#95cd1851b3)"><g clip-path="url(#30297be381)"><path fill="#2272ff" d="M 122.488281 0.734375 L 122.488281 118.003906 L 0.175781 118.003906 L 0.175781 0.734375 Z M 122.488281 0.734375 " fill-opacity="1" fill-rule="nonzero"/></g></g></g></g></g></g><g clip-path="url(#6b94fc2e88)"><g transform="matrix(1, 0, 0, 1, 542, 233)"><g clip-path="url(#7fc3ce719c)"><g clip-path="url(#d923c9e2b9)"><path fill="#929db8" d="M 0.0117188 0.0117188 L 71.785156 0.0117188 L 71.785156 72.347656 L 0.0117188 72.347656 Z M 0.0117188 0.0117188 " fill-opacity="1" fill-rule="nonzero"/></g></g></g></g></svg>